<svg viewBox="0 0 146 53" fill="none" xmlns="http://www.w3.org/2000/svg">
  <g>
    <path d="M37.8476 50.1678C35.1509 50.1678 32.6412 49.3248 30.5946 47.7295C29.3912 46.8094 27.9204 46.315 26.4101 46.323C24.8294 46.323 23.3416 46.7926 22.1326 47.8232H22.0397C19.9869 49.4146 17.4677 50.2724 14.8784 50.2615C8.27579 50.2615 2.8822 44.8228 2.8822 38.1648C2.8822 35.4456 3.7196 32.9137 5.30028 30.8511C6.21284 29.6377 6.70308 28.1546 6.69511 26.6316C6.69511 25.0377 6.23056 23.5363 5.20737 22.3171V22.0373C3.62668 19.9737 2.8822 17.4418 2.8822 14.8161C2.8822 8.15816 8.27579 2.71942 14.8784 2.71942C17.5752 2.71942 20.0862 3.56261 22.1326 5.15774C23.3361 6.07793 24.8069 6.57231 26.3172 6.56427C27.8978 6.56427 29.3857 6.0946 30.5946 5.06404C32.7341 3.47013 35.2438 2.62573 37.8476 2.62573C44.4514 2.62573 49.8438 8.06446 49.8438 14.7224C49.8438 17.4418 49.0078 19.9737 47.4269 22.0361C46.5144 23.2496 46.0241 24.7327 46.032 26.2557C46.032 27.8496 46.4966 29.351 47.5198 30.5702C49.1007 32.7261 49.9378 35.1644 49.9378 37.8839C49.8438 44.7292 44.4514 50.1678 37.8476 50.1678ZM26.3172 44.7292C28.1766 44.7292 29.9443 45.2924 31.432 46.5117C33.2813 47.9145 35.5335 48.6712 37.8476 48.6676C43.614 48.6676 48.3572 43.8859 48.3572 38.0712C48.3572 35.7265 47.6129 33.5694 46.218 31.6956C45.1017 30.1942 44.4503 28.3192 44.4503 26.443C44.4503 24.5693 45.0089 22.7868 46.218 21.2866C47.5942 19.4493 48.3444 17.2123 48.3561 14.9097C48.3561 9.09626 43.614 4.31333 37.8476 4.31333C35.5238 4.31333 33.3843 5.06404 31.5249 6.47058C30.0371 7.59482 28.2695 8.25185 26.3172 8.25185C24.4566 8.25185 22.6901 7.68852 21.2023 6.47058C19.3528 5.06728 17.1001 4.30997 14.7855 4.31333C9.02027 4.31333 4.27705 9.09505 4.27705 14.9097C4.27705 17.2544 5.02154 19.4116 6.41639 21.2854L6.50931 21.3803C7.62542 22.8805 8.27579 24.6618 8.27579 26.5379C8.27579 28.4129 7.71833 30.1942 6.50931 31.6944C5.11445 33.5706 4.36997 35.7265 4.36997 38.0712C4.36997 43.8859 9.11199 48.6688 14.8796 48.6688C17.2036 48.6688 19.3429 47.9183 21.2023 46.5117C22.6901 45.2924 24.4566 44.7292 26.3172 44.7292Z" fill="#59A417" />
    <path d="M39.2442 52.982C36.2673 52.982 33.4778 52.0439 31.1526 50.1677C29.7513 49.1289 28.0568 48.5704 26.3176 48.5739C24.5499 48.5739 22.8763 49.1372 21.4814 50.2628C19.1563 52.0439 16.3666 52.982 13.3911 52.982C6.04516 52.982 7.85531e-06 46.8864 7.85531e-06 39.4776C7.85531e-06 36.4772 0.929106 33.6641 2.78971 31.3195C3.80534 29.9347 4.35883 28.2604 4.37039 26.5379C4.37039 24.7554 3.81294 23.0678 2.6968 21.6613V21.5676C0.944509 19.2507 -0.00314773 16.4169 7.85531e-06 13.5032C7.85531e-06 6.09577 6.04516 0 13.3911 0C16.3666 0 19.1563 0.936875 21.4814 2.81306C22.883 3.85219 24.578 4.41081 26.3176 4.40695C28.0841 4.40695 29.7577 3.84483 31.1538 2.71937C33.4763 0.938091 36.2661 0 39.243 0C46.5889 0 52.6339 6.09577 52.6339 13.5032C52.6339 16.5036 51.7036 19.3167 49.9373 21.6613C48.9068 23.0746 48.3529 24.7837 48.3564 26.5379C48.3564 28.3192 48.9141 30.0068 50.0301 31.4146C51.7824 33.7313 52.7299 36.5653 52.727 39.4788C52.6339 46.8864 46.6829 52.982 39.2442 52.982ZM26.3164 47.0737C28.3616 47.0737 30.4068 47.7306 31.9886 49.0436C34.1281 50.6374 36.545 51.4818 39.243 51.4818C45.7526 51.4818 51.145 46.1368 51.145 39.4788C51.145 36.8521 50.3087 34.415 48.7281 32.2576C47.4249 30.5701 46.7746 28.6002 46.7746 26.4442C46.7746 24.3806 47.4264 22.3183 48.7281 20.7232C50.3087 18.5672 51.1461 16.1288 51.1461 13.5032C51.1461 6.93897 45.8443 1.50022 39.243 1.50022C36.6536 1.4895 34.1345 2.34727 32.0818 3.93852C30.4077 5.168 28.3873 5.82505 26.3164 5.81348C24.27 5.81348 22.2247 5.15646 20.6441 3.84483C18.5047 2.25093 16.0867 1.40653 13.3899 1.40653C6.88016 1.40653 1.48656 6.75158 1.48656 13.4095C1.48656 16.0352 2.32396 18.5672 3.90462 20.6295V20.7244C5.20656 22.412 5.85694 24.3806 5.85694 26.5379C5.85694 28.6002 5.20537 30.6626 3.90462 32.2576C2.32684 34.3272 1.47621 36.8671 1.48656 39.4776C1.48656 46.042 6.78725 51.4818 13.3899 51.4818C15.9787 51.4921 18.4974 50.6344 20.5499 49.0436C22.2017 47.7592 24.2306 47.0661 26.3164 47.0737Z" fill="#59A417" />
    <path d="M36.4533 47.355C34.1395 47.3582 31.8873 46.6015 30.0377 45.1988C27.8985 43.5101 24.83 43.6049 22.6907 45.1988C20.841 46.6018 18.5884 47.3585 16.2739 47.355C14.8815 47.3556 13.5027 47.0794 12.2162 46.5426C10.9297 46.0055 9.76073 45.2182 8.77616 44.2253C7.79163 43.2325 7.01076 42.0538 6.47821 40.7565C5.94566 39.4592 5.67188 38.0688 5.67252 36.6649C5.67252 34.3202 6.41701 32.0704 7.81186 30.1942L7.90478 30.1005C8.64806 29.0688 9.1138 27.8496 9.1138 26.538C9.1138 25.224 8.64806 23.9123 7.81066 22.7869L7.71895 22.6932C6.3229 20.817 5.67133 18.661 5.67133 16.3163C5.67068 14.9123 5.94446 13.5219 6.47701 12.2247C7.00956 10.9274 7.79043 9.74866 8.77497 8.75588C9.75953 7.76307 10.9285 6.97567 12.215 6.43866C13.5015 5.90165 14.8803 5.62558 16.2727 5.62623C18.5978 5.62623 20.8301 6.37695 22.6895 7.78348C24.8288 9.47106 27.8973 9.3774 30.0354 7.78348C31.8849 6.38019 34.1377 5.62288 36.4521 5.62623C37.8446 5.62558 39.2235 5.90165 40.51 6.43866C41.7963 6.97567 42.9655 7.76307 43.9498 8.75588C44.9344 9.74866 45.7152 10.9274 46.2478 12.2247C46.7804 13.5219 47.0543 14.9123 47.0534 16.3163C47.0572 18.6502 46.3068 20.9217 44.9154 22.7869C44.078 23.8187 43.7063 25.1315 43.7063 26.4443C43.7063 27.7572 44.1708 29.0688 45.0083 30.1942C46.3997 32.0595 47.1501 34.3308 47.1466 36.6649C47.0535 42.5732 42.3117 47.355 36.4521 47.355H36.4533ZM26.3178 42.3859C27.9914 42.3859 29.572 42.948 30.874 43.9798C32.4786 45.2064 34.4396 45.8657 36.4533 45.8548C41.4754 45.8548 45.5669 41.7287 45.5669 36.6649C45.5625 34.6656 44.9093 32.7226 43.7077 31.1323C42.6819 29.8246 42.1248 28.2054 42.1268 26.538C42.1268 24.8492 42.6843 23.2553 43.7077 21.9425C44.9242 20.3244 45.5777 18.3469 45.5669 16.3163C45.5669 11.2524 41.4765 7.12646 36.4533 7.12646C34.4081 7.12646 32.5475 7.78348 30.9669 9.00263C29.6649 10.0332 28.0843 10.5965 26.3178 10.5965C24.6638 10.599 23.0576 10.0373 21.7604 9.00263C20.1559 7.77535 18.1948 7.11591 16.181 7.12646C11.159 7.12646 7.06738 11.2524 7.06738 16.3163C7.07263 18.316 7.72648 20.2589 8.9292 21.8488L9.02211 21.9425C10.0441 23.2565 10.5099 24.8504 10.5099 26.538V26.7254C10.5099 28.413 9.9512 29.9133 8.9292 31.2274V31.1323C7.72014 32.7264 7.16149 34.6023 7.16149 36.571C7.16149 41.6351 11.2531 45.7609 16.2751 45.7609C18.3215 45.7609 20.1809 45.104 21.7616 43.8861C23.0884 42.9189 24.6807 42.3945 26.3178 42.3859Z" fill="#59A417" />
    <path d="M35.1513 44.8239C33.1058 44.8239 31.0607 44.167 29.4801 42.8529C28.5658 42.1675 27.4568 41.7974 26.3175 41.7974C25.1782 41.7974 24.0693 42.1675 23.155 42.8529C21.4814 44.0734 19.5291 44.7291 17.4838 44.7291C16.2494 44.7327 15.0264 44.49 13.8852 44.0154C12.7441 43.5408 11.7072 42.8432 10.8342 41.9631C9.96128 41.083 9.26948 40.0375 8.79857 38.8868C8.32766 37.7361 8.08697 36.5029 8.09032 35.2583C8.09032 33.1957 8.74189 31.1335 10.0426 29.5385C10.6942 28.6016 11.0658 27.5686 11.0658 26.3506C11.0652 25.1908 10.6713 24.066 9.94972 23.1628L9.85681 23.0679C8.64778 21.3803 7.99741 19.5041 7.99741 17.4418C7.99408 16.1971 8.23472 14.964 8.70554 13.8134C9.17636 12.6628 9.86808 11.6174 10.7409 10.7373C11.6137 9.85716 12.6505 9.15966 13.7915 8.68489C14.9325 8.21013 16.1554 7.96745 17.3897 7.97084C19.4362 7.97084 21.4814 8.62786 23.0621 9.93949C23.9762 10.6246 25.085 10.9946 26.224 10.9946C27.363 10.9946 28.4718 10.6246 29.386 9.93949L29.4789 9.8458C31.0834 8.61894 33.0445 7.95994 35.0581 7.97084C36.2927 7.96745 37.5156 8.21013 38.6564 8.68489C39.7976 9.15966 40.8342 9.85716 41.707 10.7373C42.5801 11.6174 43.2715 12.6628 43.7425 13.8134C44.2132 14.964 44.4538 16.1971 44.4506 17.4418C44.4506 19.5041 43.7992 21.474 42.5911 23.1616V23.2553C41.9397 24.1922 41.568 25.2251 41.568 26.4431C41.568 27.5686 41.9397 28.694 42.684 29.6321C43.8932 31.3198 44.5435 33.2897 44.5435 35.352C44.547 36.5966 44.3061 37.8297 43.8354 38.9804C43.3647 40.1308 42.6729 41.1764 41.8001 42.0565C40.9273 42.9366 39.8904 43.6341 38.7493 44.1087C37.6085 44.5837 36.3856 44.8275 35.1513 44.8239ZM26.3175 40.2285C27.8053 40.2285 29.2 40.697 30.3163 41.6351C31.6896 42.6592 33.3502 43.2172 35.0581 43.2289C36.0965 43.2298 37.1246 43.0246 38.0841 42.6244C39.0434 42.2243 39.9153 41.6372 40.6493 40.8969C41.3834 40.1567 41.9657 39.2778 42.3628 38.3105C42.7596 37.343 42.9637 36.3063 42.9629 35.2595C42.9629 33.4769 42.4054 31.8831 41.3823 30.4765C40.4712 29.298 39.9801 27.8448 39.9874 26.3506C39.9874 24.8492 40.452 23.4427 41.2891 22.3184V22.2235C42.305 20.8386 42.8583 19.1643 42.87 17.4418C42.8706 16.3949 42.6668 15.3582 42.2699 14.3908C41.8731 13.4235 41.2909 12.5446 40.5571 11.8043C39.823 11.064 38.9514 10.4769 37.9921 10.0765C37.0329 9.67614 36.0048 9.47041 34.9664 9.47103C33.199 9.47103 31.6181 10.0332 30.2235 11.0649C29.0546 11.9835 27.6135 12.4789 26.1317 12.4715C24.6439 12.4715 23.2479 12.003 22.133 11.0649C20.7592 10.0406 19.0983 9.48246 17.3897 9.47103C16.3515 9.47009 15.3233 9.67555 14.3639 10.0757C13.4046 10.4759 12.5328 11.0628 11.7987 11.803C11.0645 12.5433 10.4822 13.4222 10.0853 14.3895C9.68829 15.3569 9.48439 16.3937 9.48518 17.4406C9.48518 19.2231 10.0426 20.817 11.0658 22.2235V22.3184C11.9949 23.5363 12.4607 24.9429 12.4607 26.3506C12.4607 27.8508 11.9961 29.2574 11.0658 30.3829C10.0502 31.7677 9.49674 33.4422 9.48518 35.1644C9.48421 36.2114 9.68803 37.2485 10.0849 38.216C10.4818 39.1836 11.0641 40.0625 11.7983 40.8027C12.5324 41.5432 13.4042 42.1304 14.3637 42.5305C15.3231 42.9307 16.3514 43.1362 17.3897 43.1353C19.1562 43.1353 20.7369 42.5732 22.1318 41.5415C23.4349 40.7906 24.8298 40.2285 26.3175 40.2285Z" fill="#59A417" />
    <path d="M33.8504 42.292C32.0829 42.292 30.3151 41.7287 28.9214 40.6033C27.4337 39.384 25.2014 39.4788 23.7137 40.6033L23.6208 40.6981C22.2192 41.7372 20.5242 42.2958 18.7846 42.292C14.3201 42.292 10.6013 38.6347 10.6013 34.0402C10.6013 32.2576 11.1588 30.4753 12.2749 29.0699C12.8336 28.3192 13.1123 27.3823 13.1123 26.4442C13.1123 25.5073 12.8336 24.568 12.1832 23.8186C11.0659 22.412 10.5084 20.6307 10.5084 18.8482C10.5084 14.3464 14.1355 10.5964 18.6917 10.5964C20.4594 10.5964 22.2259 11.1586 23.6208 12.284C25.1085 13.5032 27.3408 13.4095 28.8285 12.284C30.2234 11.1586 31.9898 10.5964 33.7575 10.5964C38.2207 10.5964 41.9408 14.2539 41.9408 18.8482C41.9408 20.6307 41.3822 22.412 40.2662 23.8186C39.7085 24.568 39.3371 25.5061 39.3371 26.4442C39.3371 27.3811 39.6145 28.3192 40.2662 29.0699C41.2894 30.4765 41.9408 32.164 41.9408 34.0402C42.0337 38.5407 38.4067 42.292 33.8504 42.292ZM26.3176 38.1662C27.6195 38.1662 28.8273 38.5407 29.8517 39.3852C31.0609 40.3221 32.4555 40.7918 33.8504 40.7918C37.4764 40.7918 40.4531 37.7902 40.4531 34.1338C40.4531 32.6324 39.9873 31.3195 39.1499 30.1017C38.3139 29.0699 37.9422 27.8508 37.9422 26.5367C37.9422 25.2251 38.3139 24.0059 39.1511 22.9741C40.0802 21.755 40.5459 20.4434 40.5459 18.9419C40.5459 15.2857 37.5693 12.284 33.9435 12.284C32.4555 12.284 31.1526 12.7537 29.9446 13.5981C27.8982 15.192 24.9227 15.192 22.8763 13.5981C21.6672 12.66 20.3665 12.1904 18.8776 12.1904C15.2516 12.1904 12.2749 15.1908 12.2749 18.8482C12.2749 20.3485 12.7407 21.6613 13.5781 22.8805C14.4142 23.9122 14.7859 25.1314 14.7859 26.4442C14.7859 27.7571 14.4142 28.975 13.5768 30.0069C12.6478 31.1322 12.182 32.5388 12.182 34.0402C12.182 37.6966 15.1575 40.6981 18.7846 40.6981C20.2724 40.6981 21.5743 40.2285 22.7834 39.384C23.8066 38.5407 25.0156 38.1662 26.3176 38.1662Z" fill="#59A417" />
    <path d="M32.6412 39.6653C31.1313 39.6735 29.6605 39.1797 28.4568 38.2599C27.8532 37.8035 27.119 37.5565 26.3645 37.5565C25.61 37.5565 24.8758 37.8035 24.2722 38.2599C23.0632 39.1968 21.6684 39.6665 20.0877 39.6665C19.1833 39.6685 18.2874 39.4907 17.4515 39.1429C16.6155 38.7949 15.8559 38.2838 15.2164 37.6392C14.5769 36.9944 14.07 36.2285 13.7248 35.3855C13.3797 34.5428 13.203 33.6395 13.2051 32.7276C13.1971 31.2044 13.6874 29.7213 14.6 28.5078C15.0761 27.9268 15.339 27.198 15.3445 26.4443C15.3445 25.6936 15.0657 24.9441 14.6 24.287L14.5071 24.1934C13.6633 22.9859 13.2087 21.5458 13.2051 20.0687C13.2029 19.1566 13.3794 18.2532 13.7245 17.4101C14.0696 16.5671 14.5764 15.8011 15.216 15.1562C15.8555 14.5113 16.6151 14.0002 17.4512 13.6522C18.2872 13.3042 19.1832 13.1262 20.0877 13.1285C21.598 13.1205 23.0688 13.6148 24.2722 14.535C24.8758 14.9915 25.61 15.2383 26.3645 15.2383C27.119 15.2383 27.8532 14.9915 28.4568 14.535C29.6657 13.5982 31.0606 13.1285 32.6412 13.1285C33.5455 13.1264 34.4414 13.3045 35.2771 13.6524C36.1131 14.0004 36.8723 14.5115 37.5118 15.1562C38.1513 15.801 38.6579 16.5667 39.003 17.4096C39.3482 18.2524 39.5248 19.1556 39.5228 20.0675C39.5307 21.5904 39.0404 23.0735 38.1279 24.287C37.6633 24.9441 37.3845 25.6011 37.3845 26.3506C37.3845 27.1001 37.6622 27.8508 38.1279 28.5078C39.0384 29.686 39.5298 31.1388 39.5228 32.6325C39.5228 36.5722 36.4542 39.6653 32.6412 39.6653ZM26.3187 36.0089C27.4336 36.0089 28.4568 36.3837 29.2929 37.0406C30.2232 37.7903 31.3395 38.1663 32.5484 38.1663C33.9786 38.1651 35.3498 37.5918 36.3613 36.5722C37.3725 35.5525 37.941 34.1695 37.9419 32.7276C37.9419 31.5083 37.5705 30.3829 36.8259 29.4448C36.1744 28.5078 35.8027 27.4761 35.8027 26.3506C35.8027 25.2251 36.1756 24.1934 36.8259 23.3502C37.5705 22.4121 37.9419 21.2866 37.9419 20.0675C37.941 18.6253 37.3725 17.2425 36.3613 16.2228C35.3498 15.203 33.9786 14.6297 32.5484 14.6287C31.3395 14.6287 30.2232 15.0035 29.2929 15.7542C27.5265 17.067 25.0155 17.1607 23.2478 15.7542C22.3187 15.0035 21.2026 14.6287 19.9936 14.6287C18.5634 14.6297 17.1921 15.203 16.1808 16.2228C15.1695 17.2425 14.6009 18.6253 14.6 20.0675C14.6 21.2866 14.9728 22.4121 15.7161 23.3502L15.809 23.4439C16.4606 24.287 16.7393 25.3188 16.7393 26.4443C16.7393 27.5697 16.3676 28.6015 15.7161 29.4448C14.9728 30.3818 14.6 31.5083 14.6 32.7276C14.6009 34.1695 15.1695 35.5525 16.1808 36.5722C17.1921 37.5918 18.5634 38.1651 19.9936 38.1663C21.2026 38.1663 22.3187 37.7914 23.249 37.0406C24.1781 36.3837 25.2025 36.0089 26.3187 36.0089Z" fill="#59A417" />
    <path d="M31.3395 37.1341C30.1034 37.1355 28.8985 36.7416 27.8983 36.0087C26.9692 35.2582 25.6661 35.3518 24.737 36.0087C23.7435 36.7545 22.5342 37.15 21.2957 37.1341C18.2273 37.1341 15.6246 34.6021 15.6246 31.4133C15.6246 30.194 15.995 28.9749 16.7395 27.9443C17.0993 27.4923 17.2953 26.93 17.2953 26.3504C17.2953 25.7708 17.0993 25.2085 16.7395 24.7565L16.6466 24.6616C15.9021 23.7247 15.5305 22.5056 15.5305 21.2864C15.5305 18.1911 18.0415 15.5654 21.2028 15.5654C22.4118 15.5654 23.6208 15.9414 24.6441 16.6909C25.5732 17.4416 26.8763 17.3479 27.8054 16.6909C28.7989 15.9451 30.0083 15.5496 31.2466 15.5654C34.3153 15.5654 36.919 18.0974 36.919 21.2864C36.919 22.5056 36.5473 23.7247 35.803 24.6616L35.7098 24.7553C35.3501 25.2073 35.1542 25.7696 35.1542 26.3492C35.1542 26.9288 35.3501 27.4911 35.7098 27.9431C36.4544 28.9749 36.8262 30.1004 36.8262 31.3194C37.0119 34.6021 34.4081 37.1341 31.3395 37.1341ZM26.3176 33.9464C27.2468 33.9464 28.0853 34.2261 28.8286 34.7897C29.5732 35.3518 30.4092 35.6339 31.3395 35.6339C33.5718 35.6339 35.4313 33.7577 35.4313 31.5069C35.4313 30.57 35.1524 29.7256 34.5938 28.9761C34.0437 28.2492 33.7497 27.3583 33.7575 26.4441C33.7575 25.5997 34.0364 24.7553 34.595 24.0058L34.6867 23.9121C35.2456 23.1614 35.5241 22.3182 35.5241 21.3801C35.5241 19.1292 33.6647 17.2542 31.4338 17.2542C30.5023 17.2542 29.666 17.5341 28.9215 18.0974C27.5267 19.2229 25.3886 19.2229 23.8996 18.0974C23.179 17.5431 22.296 17.2465 21.3898 17.2542C19.1576 17.2542 17.297 19.1292 17.297 21.3789C17.297 22.317 17.5769 23.1614 18.1343 23.9121V24.0058C18.693 24.7553 18.9717 25.5997 18.9717 26.4441C18.9717 27.381 18.6918 28.2254 18.1343 28.9749C17.5839 29.7017 17.2893 30.5924 17.297 31.5069C17.297 33.7577 19.1576 35.6339 21.3898 35.6339C22.3189 35.6339 23.1563 35.3518 23.8996 34.7897C24.5512 34.2261 25.3886 33.9464 26.3176 33.9464Z" fill="#59A417" />
    <path d="M30.0374 34.6025C29.1085 34.6025 28.1782 34.3213 27.3408 33.6656C26.6892 33.1959 25.853 33.1959 25.2943 33.6656C24.5199 34.2645 23.5734 34.5931 22.5975 34.6025C22.0234 34.6031 21.4549 34.4894 20.9243 34.2683C20.3938 34.0469 19.9118 33.7224 19.5058 33.3131C19.0998 32.9035 18.7779 32.4177 18.5586 31.8827C18.3392 31.3477 18.2265 30.7744 18.2272 30.1955C18.2272 29.2573 18.5059 28.3192 19.1563 27.476C19.3433 27.1937 19.5291 26.819 19.5291 26.4442C19.5291 26.0695 19.4362 25.6935 19.1575 25.4125C18.5988 24.5681 18.2272 23.6312 18.2272 22.6931C18.2265 22.1142 18.3392 21.5408 18.5586 21.0059C18.7779 20.4709 19.0998 19.9848 19.5058 19.5755C19.9118 19.1661 20.3938 18.8415 20.9243 18.6203C21.4549 18.399 22.0234 18.2855 22.5975 18.2861C23.5279 18.2861 24.4582 18.5672 25.2943 19.223C25.9459 19.6926 26.7821 19.6926 27.4337 19.223L27.5266 19.1293C28.2711 18.5672 29.2003 18.2861 30.1306 18.2861C30.7047 18.2855 31.2732 18.399 31.8037 18.6203C32.3343 18.8415 32.8164 19.1661 33.2223 19.5755C33.6282 19.9848 33.9499 20.4709 34.1695 21.0059C34.3888 21.5408 34.5015 22.1142 34.5009 22.6931C34.5009 23.6299 34.2221 24.5681 33.5718 25.4125C33.2918 25.6935 33.1989 26.0695 33.1989 26.4442C33.1989 26.819 33.2918 27.1937 33.5718 27.476C34.1292 28.2255 34.4078 29.1636 34.4078 30.1016C34.4078 32.6324 32.4555 34.6025 30.0374 34.6025ZM28.364 32.5399C28.8285 32.9147 29.4788 33.102 30.0374 33.102C31.6183 33.102 32.9201 31.7882 32.9201 30.1941C32.9201 29.5383 32.7343 28.9762 32.3626 28.4129C31.8969 27.8507 31.7112 27.1 31.7112 26.4442C31.7112 25.6935 31.8969 25.0377 32.3626 24.4744C32.7343 24.0059 32.9201 23.3501 32.9201 22.6931C32.9201 21.0992 31.6183 19.7851 30.0363 19.7851C29.386 19.7851 28.8285 19.9737 28.2711 20.3485H28.177C27.062 21.1929 25.3872 21.1929 24.2723 20.3485C23.8066 19.9737 23.1562 19.7863 22.5046 19.7863C21.7411 19.7902 21.0099 20.0978 20.4701 20.6424C19.9303 21.1869 19.6255 21.9244 19.622 22.6943C19.622 23.3501 19.8078 23.9122 20.1795 24.4744C20.6452 25.0377 20.8311 25.6935 20.8311 26.4442C20.8311 27.1937 20.6452 27.8507 20.1795 28.4129C19.8078 28.8825 19.622 29.5383 19.622 30.1955C19.6258 30.9652 19.9309 31.7025 20.471 32.2469C21.011 32.7914 21.7423 33.0988 22.5059 33.102C23.1562 33.102 23.7137 32.9147 24.2711 32.5399C24.8574 32.0838 25.577 31.8365 26.3176 31.8365C27.0581 31.8365 27.7777 32.0838 28.364 32.5399Z" fill="#59A417" />
    <path d="M28.7353 32.0702C28.0837 32.0702 27.3405 31.883 26.8747 31.4133C26.7197 31.3212 26.543 31.2726 26.3631 31.2726C26.1831 31.2726 26.0065 31.3212 25.8515 31.4133C25.3295 31.8485 24.6705 32.0814 23.9933 32.0702C23.5771 32.0738 23.1644 31.9937 22.7792 31.835C22.3939 31.676 22.0439 31.4413 21.7496 31.1445C21.4552 30.848 21.2224 30.495 21.0646 30.1066C20.9069 29.7182 20.8274 29.3021 20.8307 28.8824C20.8307 28.2254 21.0166 27.4747 21.4823 27.0062C21.574 26.8189 21.6669 26.6315 21.6669 26.4429C21.6669 26.1631 21.574 25.9745 21.4811 25.8808L21.3882 25.7871C21.0231 25.2312 20.8292 24.5789 20.8307 23.9121C20.8274 23.4925 20.9068 23.0765 21.0645 22.6882C21.2222 22.2999 21.4549 21.9471 21.7492 21.6504C22.0434 21.3537 22.3932 21.119 22.7783 20.96C23.1634 20.801 23.576 20.7209 23.9921 20.7243C24.6437 20.7243 25.387 20.9105 25.8515 21.3801C25.988 21.5154 26.1717 21.5911 26.3631 21.5911C26.5545 21.5911 26.7382 21.5154 26.8747 21.3801C27.3973 20.9443 28.0572 20.7113 28.7353 20.7231C29.1514 20.7197 29.5641 20.7998 29.949 20.9588C30.3341 21.1178 30.6839 21.3525 30.9783 21.6492C31.2726 21.9459 31.5053 22.2987 31.663 22.687C31.8207 23.0753 31.9001 23.4913 31.8966 23.9109C31.8966 24.5679 31.7109 25.3187 31.2451 25.7871C31.1523 25.9745 31.0591 26.1618 31.0591 26.3492C31.0591 26.5378 31.1523 26.7252 31.2451 26.9125C31.618 27.4747 31.8966 28.1317 31.8966 28.7875C31.8966 30.6637 30.5017 32.0702 28.7353 32.0702ZM27.805 30.194C28.0837 30.3813 28.4566 30.4764 28.7341 30.4764C29.6645 30.4764 30.3148 29.7256 30.3148 28.8824C30.3148 28.5065 30.2231 28.2254 30.0371 27.9443C29.7574 27.5684 29.5714 27.0062 29.5714 26.4441C29.5714 25.8808 29.7574 25.4123 30.0371 24.9427C30.2231 24.6628 30.4089 24.2857 30.4089 23.9121C30.4089 22.974 29.6645 22.3182 28.8282 22.3182C28.4554 22.3182 28.1766 22.4107 27.8979 22.693C27.0605 23.35 25.8527 23.35 25.0141 22.693C24.7366 22.5056 24.3637 22.317 23.9921 22.317C23.7841 22.3154 23.5778 22.3555 23.3853 22.435C23.1928 22.5146 23.0179 22.6319 22.8708 22.7802C22.7237 22.9286 22.6073 23.1049 22.5285 23.299C22.4496 23.4932 22.4098 23.7011 22.4114 23.9109C22.4114 24.2869 22.5043 24.5679 22.6902 24.849V24.9427C22.9689 25.3187 23.1547 25.8808 23.1547 26.3492C23.1547 26.9125 22.9689 27.381 22.6902 27.8506C22.5043 28.1305 22.3185 28.5065 22.3185 28.8812C22.3185 29.8192 23.0618 30.4752 23.8992 30.4752C24.2708 30.4752 24.5507 30.3813 24.8283 30.1004C25.6657 29.5383 26.9676 29.5383 27.805 30.194Z" fill="#59A417" />
    <path d="M143.21 19.3178V21.1928L142.931 20.9117C141.63 19.6925 140.142 19.0355 138.561 19.0355C134.469 19.0355 131.4 22.2233 131.4 26.4441C131.4 30.6637 134.469 33.8528 138.561 33.8528C140.142 33.8528 141.722 33.1956 142.931 31.9766L143.21 31.6954V33.5704H146V19.3178H143.21ZM138.84 30.8524C136.422 30.8524 134.655 28.9761 134.655 26.4441C134.655 23.9133 136.422 22.0372 138.84 22.0372C141.258 22.0372 143.024 23.9121 143.024 26.4441C143.024 28.9749 141.258 30.8524 138.84 30.8524ZM90.0174 33.4768H92.8084V19.3178H90.0174L82.8588 29.7244V19.3154H80.069V33.4756H82.9528L90.1118 23.0665L90.0189 33.4756L90.0174 33.4768ZM74.3014 37.3216H76.8123V31.0385H74.6743V19.3166H71.8845V31.0385H65.3747V19.3166H62.5852V33.4768H74.3014V37.3216ZM111.407 21.2865C110.104 19.9736 108.246 19.3178 106.014 19.3178H105.828V14.8159H103.037V19.3178H102.851C100.619 19.3178 98.6668 20.0673 97.3647 21.3801C96.0627 22.6942 95.3196 24.3806 95.3196 26.6315C95.3196 28.7887 95.971 30.57 97.3647 31.8829C98.6679 33.1956 100.62 33.8528 102.851 33.9452H103.037V38.447H105.828V33.9452H106.014C108.246 33.9452 110.104 33.1956 111.407 31.8829C112.709 30.57 113.452 28.7887 113.452 26.6315C113.452 24.2869 112.709 22.5056 111.407 21.2865ZM102.758 31.1321C101.549 31.0385 100.526 30.6637 99.7828 29.8207C99.0382 28.9761 98.6668 27.8506 98.6668 26.4441C98.6668 25.0376 99.0382 23.9121 99.7828 23.0677C100.527 22.3182 101.456 21.8486 102.758 21.7549V31.1321ZM108.989 29.8207C108.245 30.57 107.316 31.0385 106.105 31.1321V21.8486C107.316 21.9435 108.245 22.3182 108.989 23.1627C109.734 24.0058 110.105 25.1313 110.105 26.5378C110.105 27.9443 109.732 29.0686 108.989 29.8207ZM122.938 19.1304C121.543 19.1304 120.148 19.6925 119.032 20.7243L118.754 21.0054V19.3178H115.963V38.1649H118.753V31.7893L119.032 32.0702C120.148 33.1019 121.543 33.664 122.938 33.664C126.379 33.664 129.169 30.3828 129.169 26.3517C129.169 22.3182 126.379 19.1304 122.938 19.1304ZM122.38 30.8512C120.334 30.8512 118.753 28.8824 118.753 26.3505C118.753 23.8197 120.427 21.8486 122.38 21.8486C124.426 21.8486 126.007 23.8197 126.007 26.3505C126.007 28.8812 124.333 30.8512 122.38 30.8512Z" fill="white" />
  </g>
</svg>