<svg width="53" height="52" viewBox="0 0 53 52" fill="none" xmlns="http://www.w3.org/2000/svg">
  <g clip-path="url(#clip0_4603_260)">
    <path d="M37.3291 49.2212C34.6694 49.2212 32.1941 48.3941 30.1755 46.8289C28.9886 45.9261 27.5379 45.4411 26.0483 45.4489C24.4893 45.4489 23.0219 45.9097 21.8294 46.9208H21.7378C19.7131 48.4822 17.2284 49.3238 14.6746 49.3131C8.16242 49.3131 2.84271 43.977 2.84271 37.4446C2.84271 34.7768 3.66864 32.2926 5.22767 30.2689C6.12772 29.0784 6.61125 27.6233 6.60338 26.1291C6.60338 24.5653 6.14521 23.0922 5.13602 21.896V21.6214C3.57699 19.5968 2.84271 17.1126 2.84271 14.5364C2.84271 8.00415 8.16242 2.66803 14.6746 2.66803C17.3344 2.66803 19.811 3.49532 21.8294 5.06034C23.0164 5.96318 24.467 6.44822 25.9567 6.44033C27.5157 6.44033 28.9831 5.97953 30.1755 4.96842C32.2856 3.40457 34.761 2.57611 37.3291 2.57611C43.8425 2.57611 49.161 7.91222 49.161 14.4445C49.161 17.1126 48.3365 19.5968 46.7772 21.6202C45.8772 22.8109 45.3937 24.266 45.4015 25.7602C45.4015 27.324 45.8597 28.7971 46.8688 29.9933C48.428 32.1086 49.2537 34.5009 49.2537 37.169C49.161 43.8851 43.8425 49.2212 37.3291 49.2212ZM25.9567 43.8851C27.7906 43.8851 29.5341 44.4378 31.0014 45.6341C32.8254 47.0103 35.0467 47.7528 37.3291 47.7493C43.0165 47.7493 47.6948 43.0578 47.6948 37.3528C47.6948 35.0524 46.9607 32.936 45.5849 31.0975C44.4839 29.6244 43.8414 27.7848 43.8414 25.944C43.8414 24.1057 44.3923 22.3568 45.5849 20.8849C46.9423 19.0822 47.6821 16.8875 47.6936 14.6283C47.6936 8.92455 43.0165 4.23187 37.3291 4.23187C35.0372 4.23187 32.927 4.96842 31.093 6.34841C29.6257 7.45145 27.8822 8.09607 25.9567 8.09607C24.1215 8.09607 22.3792 7.54337 20.9119 6.34841C19.0877 4.9716 16.8659 4.22857 14.583 4.23187C8.8967 4.23187 4.21846 8.92336 4.21846 14.6283C4.21846 16.9287 4.95274 19.0453 6.32849 20.8837L6.42013 20.9768C7.52095 22.4487 8.16242 24.1964 8.16242 26.0371C8.16242 27.8768 7.61259 29.6244 6.42013 31.0963C5.04438 32.9371 4.3101 35.0524 4.3101 37.3528C4.3101 43.0578 8.98716 47.7505 14.6758 47.7505C16.9679 47.7505 19.0779 47.0141 20.9119 45.6341C22.3792 44.4378 24.1215 43.8851 25.9567 43.8851Z" fill="white" />
    <path d="M38.7066 51.9824C35.7705 51.9824 33.0192 51.062 30.7259 49.2212C29.3437 48.202 27.6724 47.654 25.9571 47.6574C24.2136 47.6574 22.5629 48.2101 21.1872 49.3145C18.8939 51.062 16.1424 51.9824 13.2076 51.9824C5.96235 51.9824 7.7477e-06 46.0018 7.7477e-06 38.7328C7.7477e-06 35.789 0.916378 33.029 2.7515 30.7285C3.75322 29.3699 4.29912 27.7271 4.31052 26.0372C4.31052 24.2883 3.7607 22.6326 2.65986 21.2526V21.1606C0.931571 18.8875 -0.00310461 16.1071 7.7477e-06 13.2484C7.7477e-06 5.98075 5.96235 0 13.2076 0C16.1424 0 18.8939 0.919198 21.1872 2.75998C22.5695 3.7795 24.2413 4.32758 25.9571 4.3238C27.6994 4.3238 29.3501 3.77228 30.727 2.66806C33.0178 0.920391 35.7693 0 38.7055 0C45.9507 0 51.9129 5.98075 51.9129 13.2484C51.9129 16.1922 50.9953 18.9522 49.2532 21.2526C48.2368 22.6392 47.6905 24.3161 47.694 26.0372C47.694 27.7849 48.244 29.4407 49.3448 30.8218C51.0731 33.0948 52.0076 35.8754 52.0047 38.7339C51.9129 46.0018 46.0434 51.9824 38.7066 51.9824ZM25.9559 46.1855C27.9731 46.1855 29.9903 46.83 31.5504 48.1182C33.6606 49.682 36.0443 50.5105 38.7055 50.5105C45.1259 50.5105 50.4444 45.2663 50.4444 38.7339C50.4444 36.1568 49.6195 33.7656 48.0606 31.6489C46.7752 29.9933 46.1339 28.0606 46.1339 25.9453C46.1339 23.9206 46.7767 21.8972 48.0606 20.3322C49.6195 18.2168 50.4455 15.8245 50.4455 13.2484C50.4455 6.80804 45.2163 1.47191 38.7055 1.47191C36.1515 1.4614 33.6669 2.30298 31.6423 3.86421C29.9912 5.07049 27.9985 5.71515 25.9559 5.70379C23.9375 5.70379 21.9203 5.05917 20.3613 3.77228C18.2512 2.20846 15.8663 1.37999 13.2064 1.37999C6.78591 1.37999 1.4662 6.62419 1.4662 13.1565C1.4662 15.7326 2.29212 18.2168 3.85114 20.2403V20.3334C5.13524 21.9891 5.7767 23.9206 5.7767 26.0372C5.7767 28.0606 5.13406 30.084 3.85114 31.6489C2.29497 33.6795 1.45598 36.1715 1.4662 38.7328C1.4662 45.1733 6.69427 50.5105 13.2064 50.5105C15.7598 50.5206 18.2441 49.6791 20.2684 48.1182C21.8976 46.8581 23.8987 46.178 25.9559 46.1855Z" fill="white" />
    <path d="M35.9539 46.4615C33.6718 46.4646 31.4504 45.7222 29.6263 44.3459C27.5163 42.6891 24.4899 42.7822 22.3799 44.3459C20.5555 45.7225 18.3337 46.4649 16.0509 46.4615C14.6776 46.462 13.3177 46.1911 12.0488 45.6644C10.7799 45.1375 9.62701 44.365 8.65593 43.3909C7.68488 42.4167 6.91471 41.2603 6.38946 39.9874C5.86421 38.7146 5.59418 37.3505 5.59481 35.9731C5.59481 33.6726 6.32909 31.4652 7.70484 29.6244L7.79648 29.5326C8.52959 28.5203 8.98895 27.3241 8.98895 26.0373C8.98895 24.748 8.52959 23.4611 7.70366 22.3569L7.6132 22.265C6.23627 20.4242 5.59363 18.3088 5.59363 16.0084C5.593 14.6309 5.86302 13.2668 6.38828 11.994C6.91353 10.7212 7.6837 9.56468 8.65475 8.59063C9.62583 7.61655 10.7788 6.84401 12.0476 6.31713C13.3165 5.79026 14.6765 5.51939 16.0498 5.52003C18.3431 5.52003 20.5447 6.25658 22.3787 7.63657C24.4887 9.29231 27.5151 9.20042 29.6239 7.63657C31.4481 6.25976 33.6701 5.51674 35.9527 5.52003C37.3262 5.51939 38.6862 5.79026 39.9551 6.31713C41.2237 6.84401 42.3769 7.61655 43.3477 8.59063C44.3189 9.56468 45.089 10.7212 45.6143 11.994C46.1396 13.2668 46.4097 14.6309 46.4089 16.0084C46.4126 18.2983 45.6725 20.5269 44.3001 22.3569C43.4742 23.3692 43.1075 24.6573 43.1075 25.9453C43.1075 27.2334 43.5657 28.5203 44.3917 29.6244C45.764 31.4545 46.5042 33.683 46.5007 35.9731C46.4089 41.7699 41.732 46.4615 35.9527 46.4615H35.9539ZM25.9573 41.5862C27.6079 41.5862 29.1669 42.1377 30.4511 43.1499C32.0336 44.3534 33.9678 45.0003 35.9539 44.9896C40.9072 44.9896 44.9427 40.9414 44.9427 35.9731C44.9383 34.0115 44.2941 32.1051 43.109 30.5448C42.0972 29.2619 41.5477 27.6732 41.5497 26.0373C41.5497 24.3803 42.0995 22.8165 43.109 21.5284C44.3088 19.9409 44.9533 18.0007 44.9427 16.0084C44.9427 11.04 40.9084 6.99195 35.9539 6.99195C33.9367 6.99195 32.1016 7.63657 30.5427 8.83272C29.2585 9.84386 27.6996 10.3966 25.9573 10.3966C24.326 10.399 22.7418 9.84785 21.4623 8.83272C19.8798 7.6286 17.9456 6.98161 15.9593 6.99195C11.0062 6.99195 6.97056 11.04 6.97056 16.0084C6.97574 17.9703 7.62063 19.8766 8.80687 21.4365L8.89852 21.5284C9.90652 22.8177 10.3659 24.3815 10.3659 26.0373V26.2211C10.3659 27.8769 9.81487 29.3488 8.80687 30.6381V30.5448C7.61438 32.1089 7.06338 33.9494 7.06338 35.8809C7.06338 40.8495 11.099 44.8974 16.0521 44.8974C18.0705 44.8974 19.9045 44.2529 21.4635 43.058C22.7721 42.1091 24.3426 41.5945 25.9573 41.5862Z" fill="white" />
    <path d="M34.6697 43.9781C32.6523 43.9781 30.6352 43.3336 29.0762 42.0443C28.1745 41.3718 27.0807 41.0087 25.957 41.0087C24.8333 41.0087 23.7395 41.3718 22.8378 42.0443C21.1871 43.2418 19.2615 43.8851 17.2443 43.8851C16.0268 43.8886 14.8206 43.6505 13.695 43.1849C12.5695 42.7192 11.5468 42.0348 10.6858 41.1713C9.82482 40.3078 9.14249 39.282 8.67804 38.153C8.21358 37.024 7.97618 35.8141 7.97949 34.593C7.97949 32.5693 8.62214 30.546 9.90506 28.9811C10.5477 28.0618 10.9142 27.0483 10.9142 25.8534C10.9136 24.7154 10.5252 23.6119 9.81342 22.7257L9.72178 22.6326C8.52931 20.9768 7.88785 19.1361 7.88785 17.1126C7.88457 15.8914 8.12191 14.6816 8.58628 13.5527C9.05065 12.4239 9.73289 11.3982 10.5938 10.5346C11.4546 9.67112 12.4772 8.98677 13.6026 8.52097C14.728 8.05516 15.9341 7.81706 17.1515 7.82038C19.1699 7.82038 21.1871 8.46501 22.7461 9.75189C23.6478 10.4241 24.7414 10.7871 25.8648 10.7871C26.9882 10.7871 28.0817 10.4241 28.9835 9.75189L29.0751 9.65997C30.6576 8.45626 32.5918 7.80969 34.5779 7.82038C35.7955 7.81706 37.0017 8.05516 38.1269 8.52097C39.2524 8.98677 40.2748 9.67112 41.1356 10.5346C41.9968 11.3982 42.6787 12.4239 43.1433 13.5527C43.6075 14.6816 43.8448 15.8914 43.8417 17.1126C43.8417 19.1361 43.1992 21.0688 42.0077 22.7245V22.8164C41.3652 23.7356 40.9985 24.7491 40.9985 25.9441C40.9985 27.0483 41.3652 28.1526 42.0993 29.0729C43.2919 30.7288 43.9333 32.6615 43.9333 34.6849C43.9367 35.906 43.6991 37.1159 43.2349 38.2449C42.7706 39.3735 42.0883 40.3994 41.2275 41.2629C40.3667 42.1264 39.344 42.8107 38.2185 43.2764C37.0933 43.7424 35.8871 43.9816 34.6697 43.9781ZM25.957 39.4695C27.4244 39.4695 28.8 39.9291 29.901 40.8495C31.2555 41.8542 32.8934 42.4017 34.5779 42.4132C35.602 42.4141 36.6161 42.2127 37.5624 41.8201C38.5085 41.4275 39.3685 40.8515 40.0925 40.1252C40.8165 39.399 41.3908 38.5366 41.7825 37.5876C42.1739 36.6383 42.3752 35.6212 42.3743 34.5942C42.3743 32.8452 41.8245 31.2815 40.8154 29.9015C39.9168 28.7452 39.4324 27.3193 39.4396 25.8534C39.4396 24.3803 39.8978 23.0003 40.7235 21.8972V21.8041C41.7255 20.4453 42.2712 18.8026 42.2827 17.1126C42.2833 16.0855 42.0823 15.0683 41.6909 14.1193C41.2995 13.1702 40.7252 12.3078 40.0015 11.5815C39.2775 10.8552 38.4178 10.2791 37.4717 9.88631C36.5256 9.49351 35.5116 9.29166 34.4874 9.29227C32.7442 9.29227 31.1849 9.84379 29.8095 10.8561C28.6566 11.7573 27.2352 12.2434 25.7737 12.2361C24.3064 12.2361 22.9294 11.7765 21.8298 10.8561C20.4748 9.85107 18.8367 9.30348 17.1515 9.29227C16.1275 9.29135 15.1134 9.49293 14.1672 9.88553C13.2209 10.2781 12.3612 10.854 11.637 11.5803C10.9129 12.3065 10.3386 13.1689 9.94711 14.118C9.55557 15.0671 9.35446 16.0843 9.35524 17.1114C9.35524 18.8603 9.90506 20.4241 10.9142 21.8041V21.8972C11.8306 23.0922 12.29 24.4722 12.29 25.8534C12.29 27.3253 11.8318 28.7053 10.9142 29.8096C9.91252 31.1682 9.36664 32.8111 9.35524 34.5009C9.35429 35.5281 9.55531 36.5456 9.94679 37.4949C10.3382 38.4442 10.9125 39.3065 11.6366 40.0328C12.3607 40.7593 13.2206 41.3354 14.1669 41.728C15.1132 42.1206 16.1274 42.3222 17.1515 42.3214C18.8938 42.3214 20.4528 41.7699 21.8286 40.7576C23.1139 40.0209 24.4896 39.4695 25.957 39.4695Z" fill="white" />
    <path d="M33.3867 41.494C31.6434 41.494 29.8999 40.9413 28.5253 39.8372C27.0579 38.6409 24.8562 38.7339 23.3888 39.8372L23.2972 39.9302C21.9148 40.9497 20.2431 41.4977 18.5273 41.494C14.124 41.494 10.4561 37.9057 10.4561 33.3979C10.4561 31.6489 11.006 29.9003 12.1068 28.5214C12.6578 27.7848 12.9327 26.8656 12.9327 25.9453C12.9327 25.026 12.6578 24.1045 12.0164 23.3691C10.9143 21.9891 10.3645 20.2414 10.3645 18.4926C10.3645 14.0757 13.9419 10.3965 18.4357 10.3965C20.1792 10.3965 21.9215 10.948 23.2972 12.0522C24.7646 13.2484 26.9663 13.1565 28.4337 12.0522C29.8095 10.948 31.5516 10.3965 33.2951 10.3965C37.6972 10.3965 41.3663 13.9849 41.3663 18.4926C41.3663 20.2414 40.8154 21.9891 39.7146 23.3691C39.1646 24.1045 38.7982 25.0249 38.7982 25.9453C38.7982 26.8645 39.0718 27.7848 39.7146 28.5214C40.7238 29.9015 41.3663 31.5571 41.3663 33.3979C41.4579 37.8135 37.8807 41.494 33.3867 41.494ZM25.9571 37.4461C27.2412 37.4461 28.4325 37.8135 29.4428 38.6421C30.6354 39.5613 32.0109 40.0221 33.3867 40.0221C36.9631 40.0221 39.899 37.0772 39.899 33.4897C39.899 32.0167 39.4396 30.7285 38.6136 29.5337C37.7891 28.5214 37.4224 27.3253 37.4224 26.036C37.4224 24.7491 37.7891 23.5529 38.6148 22.5406C39.5312 21.3445 39.9905 20.0576 39.9905 18.5845C39.9905 14.9972 37.0547 12.0522 33.4786 12.0522C32.0109 12.0522 30.7259 12.513 29.5344 13.3415C27.5161 14.9053 24.5813 14.9053 22.5629 13.3415C21.3705 12.4211 20.0876 11.9603 18.619 11.9603C15.0427 11.9603 12.1068 14.9041 12.1068 18.4926C12.1068 19.9645 12.5662 21.2526 13.3921 22.4487C14.2168 23.461 14.5834 24.6572 14.5834 25.9453C14.5834 27.2333 14.2168 28.4283 13.3909 29.4407C12.4745 30.5448 12.0151 31.9248 12.0151 33.3979C12.0151 36.9853 14.9499 39.9302 18.5273 39.9302C19.9947 39.9302 21.2788 39.4695 22.4713 38.6409C23.4805 37.8135 24.673 37.4461 25.9571 37.4461Z" fill="white" />
    <path d="M32.1941 38.9168C30.7048 38.9249 29.2542 38.4404 28.0669 37.5379C27.4716 37.0901 26.7475 36.8478 26.0033 36.8478C25.2592 36.8478 24.535 37.0901 23.9397 37.5379C22.7472 38.4572 21.3715 38.9179 19.8125 38.9179C18.9205 38.92 18.0369 38.7455 17.2124 38.4043C16.3879 38.0628 15.6387 37.5613 15.0079 36.9289C14.3772 36.2963 13.8772 35.5449 13.5368 34.7178C13.1964 33.891 13.0222 33.0047 13.0242 32.11C13.0163 30.6156 13.4999 29.1604 14.4 27.9699C14.8696 27.3998 15.1289 26.6847 15.1342 25.9452C15.1342 25.2087 14.8593 24.4733 14.4 23.8287L14.3083 23.7368C13.4761 22.5521 13.0278 21.1391 13.0242 19.6899C13.022 18.7951 13.1961 17.9087 13.5364 17.0815C13.8768 16.2544 14.3767 15.5029 15.0075 14.8702C15.6383 14.2374 16.3875 13.7359 17.2121 13.3945C18.0367 13.0531 18.9204 12.8785 19.8125 12.8807C21.3021 12.8728 22.7527 13.3578 23.9397 14.2607C24.535 14.7086 25.2592 14.9507 26.0033 14.9507C26.7475 14.9507 27.4716 14.7086 28.0669 14.2607C29.2593 13.3415 30.6351 12.8807 32.1941 12.8807C33.086 12.8787 33.9696 13.0533 34.7938 13.3948C35.6184 13.7362 36.3672 14.2376 36.9979 14.8702C37.6286 15.5028 38.1283 16.2541 38.4687 17.081C38.8091 17.9079 38.9834 18.7941 38.9814 19.6887C38.9891 21.1829 38.5056 22.6381 37.6056 23.8287C37.1474 24.4733 36.8723 25.118 36.8723 25.8533C36.8723 26.5887 37.1462 27.3252 37.6056 27.9699C38.5036 29.1258 38.9883 30.5511 38.9814 32.0167C38.9814 35.882 35.9548 38.9168 32.1941 38.9168ZM25.9581 35.3294C27.0578 35.3294 28.0669 35.6971 28.8916 36.3416C29.8091 37.0771 30.9102 37.4461 32.1025 37.4461C33.5131 37.4449 34.8655 36.8824 35.8632 35.882C36.8605 34.8816 37.4213 33.5247 37.4221 32.11C37.4221 30.9137 37.0558 29.8096 36.3214 28.8892C35.6789 27.9699 35.3122 26.9576 35.3122 25.8533C35.3122 24.7491 35.68 23.7368 36.3214 22.9095C37.0558 21.9891 37.4221 20.8849 37.4221 19.6887C37.4213 18.2738 36.8605 16.9171 35.8632 15.9166C34.8655 14.916 33.5131 14.3536 32.1025 14.3526C30.9102 14.3526 29.8091 14.7203 28.8916 15.4568C27.1494 16.7449 24.6728 16.8368 22.9293 15.4568C22.0129 14.7203 20.9121 14.3526 19.7197 14.3526C18.3091 14.3536 16.9565 14.916 15.9591 15.9166C14.9617 16.9171 14.4009 18.2738 14.4 19.6887C14.4 20.8849 14.7677 21.9891 15.5008 22.9095L15.5924 23.0014C16.2351 23.8287 16.51 24.841 16.51 25.9452C16.51 27.0495 16.1434 28.0618 15.5008 28.8892C14.7677 29.8084 14.4 30.9137 14.4 32.11C14.4009 33.5247 14.9617 34.8816 15.9591 35.882C16.9565 36.8824 18.3091 37.4449 19.7197 37.4461C20.9121 37.4461 22.0129 37.0783 22.9305 36.3416C23.8469 35.6971 24.8573 35.3294 25.9581 35.3294Z" fill="white" />
    <path d="M30.9102 36.4335C29.691 36.435 28.5026 36.0484 27.5161 35.3294C26.5998 34.593 25.3145 34.6849 24.3981 35.3294C23.4182 36.0611 22.2255 36.4491 21.004 36.4335C17.9775 36.4335 15.4105 33.9494 15.4105 30.8207C15.4105 29.6244 15.7759 28.4283 16.5102 27.4172C16.865 26.9737 17.0584 26.422 17.0584 25.8533C17.0584 25.2847 16.865 24.733 16.5102 24.2895L16.4185 24.1964C15.6843 23.2772 15.3177 22.081 15.3177 20.8849C15.3177 17.8479 17.7943 15.2718 20.9123 15.2718C22.1048 15.2718 23.2972 15.6407 24.3065 16.3761C25.2228 17.1126 26.5081 17.0207 27.4245 16.3761C28.4044 15.6443 29.5972 15.2563 30.8186 15.2718C33.8452 15.2718 36.4133 17.7561 36.4133 20.8849C36.4133 22.081 36.0466 23.2772 35.3125 24.1964L35.2206 24.2883C34.8658 24.7318 34.6726 25.2835 34.6726 25.8521C34.6726 26.4208 34.8658 26.9725 35.2206 27.416C35.955 28.4283 36.3217 29.5325 36.3217 30.7285C36.5048 33.9494 33.9367 36.4335 30.9102 36.4335ZM25.9571 33.306C26.8735 33.306 27.7006 33.5805 28.4337 34.1334C29.168 34.6849 29.9926 34.9616 30.9102 34.9616C33.1119 34.9616 34.9459 33.1208 34.9459 30.9126C34.9459 29.9933 34.6709 29.1648 34.1199 28.4295C33.5773 27.7163 33.2873 26.8422 33.2951 25.9452C33.2951 25.1168 33.5701 24.2883 34.1211 23.553L34.2115 23.461C34.7627 22.7245 35.0375 21.8972 35.0375 20.9768C35.0375 18.7683 33.2035 16.9288 31.0032 16.9288C30.0845 16.9288 29.2596 17.2033 28.5253 17.756C27.1496 18.8603 25.0407 18.8603 23.5722 17.756C22.8615 17.2122 21.9906 16.9212 21.0968 16.9288C18.8951 16.9288 17.06 18.7683 17.06 20.9756C17.06 21.896 17.3361 22.7245 17.8859 23.461V23.553C18.4369 24.2883 18.7118 25.1168 18.7118 25.9452C18.7118 26.8645 18.4357 27.6929 17.8859 28.4283C17.343 29.1414 17.0524 30.0153 17.06 30.9126C17.06 33.1208 18.8951 34.9616 21.0968 34.9616C22.0131 34.9616 22.8391 34.6849 23.5722 34.1334C24.2148 33.5805 25.0407 33.306 25.9571 33.306Z" fill="white" />
    <path d="M29.626 33.9497C28.7097 33.9497 27.7921 33.6738 26.9662 33.0304C26.3236 32.5696 25.4989 32.5696 24.9478 33.0304C24.184 33.618 23.2505 33.9404 22.288 33.9497C21.7217 33.9502 21.1609 33.8387 20.6377 33.6218C20.1144 33.4045 19.639 33.0862 19.2386 32.6846C18.8382 32.2828 18.5207 31.8061 18.3043 31.2812C18.0879 30.7563 17.9768 30.1938 17.9775 29.6259C17.9775 28.7053 18.2524 27.7849 18.8938 26.9576C19.0783 26.6807 19.2616 26.313 19.2616 25.9454C19.2616 25.5777 19.1699 25.2088 18.895 24.933C18.344 24.1046 17.9775 23.1854 17.9775 22.265C17.9768 21.697 18.0879 21.1344 18.3043 20.6096C18.5207 20.0847 18.8382 19.6078 19.2386 19.2062C19.639 18.8045 20.1144 18.4861 20.6377 18.269C21.1609 18.0519 21.7217 17.9405 22.288 17.9412C23.2055 17.9412 24.1231 18.2169 24.9478 18.8604C25.5905 19.3211 26.4152 19.3211 27.0579 18.8604L27.1495 18.7684C27.8838 18.2169 28.8003 17.9412 29.7178 17.9412C30.284 17.9405 30.8448 18.0519 31.3681 18.269C31.8914 18.4861 32.3669 18.8045 32.7672 19.2062C33.1675 19.6078 33.4849 20.0847 33.7014 20.6096C33.9177 21.1344 34.0289 21.697 34.0283 22.265C34.0283 23.1842 33.7533 24.1046 33.1119 24.933C32.8357 25.2088 32.7441 25.5777 32.7441 25.9454C32.7441 26.313 32.8357 26.6807 33.1119 26.9576C33.6617 27.693 33.9365 28.6134 33.9365 29.5337C33.9365 32.0167 32.0109 33.9497 29.626 33.9497ZM27.9754 31.926C28.4336 32.2937 29.075 32.4775 29.626 32.4775C31.1852 32.4775 32.4691 31.1885 32.4691 29.6244C32.4691 28.9811 32.2859 28.4296 31.9193 27.8768C31.4599 27.3253 31.2768 26.5888 31.2768 25.9454C31.2768 25.2088 31.4599 24.5654 31.9193 24.0126C32.2859 23.553 32.4691 22.9096 32.4691 22.265C32.4691 20.7011 31.1852 19.4119 29.6248 19.4119C28.9834 19.4119 28.4336 19.5969 27.8838 19.9646H27.791C26.6913 20.793 25.0395 20.793 23.9398 19.9646C23.4805 19.5969 22.839 19.4131 22.1963 19.4131C21.4432 19.4168 20.7221 19.7187 20.1897 20.2529C19.6573 20.7872 19.3567 21.5107 19.3532 22.2662C19.3532 22.9096 19.5365 23.4611 19.903 24.0126C20.3624 24.5654 20.5457 25.2088 20.5457 25.9454C20.5457 26.6807 20.3624 27.3253 19.903 27.8768C19.5365 28.3376 19.3532 28.9811 19.3532 29.6259C19.357 30.381 19.6579 31.1044 20.1905 31.6385C20.7232 32.1727 21.4445 32.4743 22.1975 32.4775C22.839 32.4775 23.3888 32.2937 23.9386 31.926C24.5169 31.4785 25.2266 31.2358 25.957 31.2358C26.6874 31.2358 27.3972 31.4785 27.9754 31.926Z" fill="white" />
    <path d="M28.3417 31.4652C27.699 31.4652 26.9659 31.2815 26.5066 30.8207C26.3537 30.7303 26.1794 30.6826 26.002 30.6826C25.8245 30.6826 25.6502 30.7303 25.4974 30.8207C24.9825 31.2477 24.3326 31.4762 23.6646 31.4652C23.2541 31.4687 22.8471 31.3901 22.4671 31.2344C22.0872 31.0784 21.742 30.8481 21.4516 30.5569C21.1613 30.266 20.9317 29.9196 20.7761 29.5386C20.6205 29.1576 20.5421 28.7493 20.5454 28.3375C20.5454 27.6929 20.7287 26.9563 21.1881 26.4967C21.2785 26.3129 21.3701 26.1291 21.3701 25.944C21.3701 25.6695 21.2785 25.4844 21.1868 25.3925L21.0952 25.3006C20.7352 24.7552 20.5439 24.1152 20.5454 23.461C20.5421 23.0493 20.6204 22.6411 20.776 22.2602C20.9315 21.8792 21.161 21.5331 21.4512 21.242C21.7414 20.9509 22.0865 20.7206 22.4663 20.5646C22.8461 20.4086 23.253 20.33 23.6634 20.3334C24.3061 20.3334 25.0392 20.516 25.4974 20.9768C25.632 21.1095 25.8132 21.1838 26.002 21.1838C26.1907 21.1838 26.3719 21.1095 26.5066 20.9768C27.022 20.5492 27.6729 20.3206 28.3417 20.3321C28.7521 20.3288 29.1591 20.4074 29.5387 20.5634C29.9186 20.7194 30.2636 20.9497 30.5539 21.2408C30.8442 21.5319 31.0737 21.878 31.2293 22.259C31.3848 22.6399 31.4631 23.0482 31.4597 23.4598C31.4597 24.1045 31.2765 24.841 30.8171 25.3006C30.7256 25.4844 30.6337 25.6683 30.6337 25.8521C30.6337 26.0371 30.7256 26.221 30.8171 26.4048C31.1849 26.9563 31.4597 27.601 31.4597 28.2444C31.4597 30.0852 30.0839 31.4652 28.3417 31.4652ZM27.4241 29.6244C27.699 29.8081 28.0668 29.9014 28.3405 29.9014C29.2582 29.9014 29.8996 29.1648 29.8996 28.3375C29.8996 27.9687 29.8091 27.6929 29.6257 27.4171C29.3498 27.0483 29.1663 26.4967 29.1663 25.9452C29.1663 25.3925 29.3498 24.9329 29.6257 24.4721C29.8091 24.1976 29.9923 23.8275 29.9923 23.461C29.9923 22.5406 29.2582 21.8972 28.4333 21.8972C28.0656 21.8972 27.7907 21.9879 27.5158 22.2649C26.6898 22.9095 25.4986 22.9095 24.6714 22.2649C24.3977 22.081 24.03 21.896 23.6634 21.896C23.4583 21.8944 23.2548 21.9338 23.065 22.0118C22.8751 22.0898 22.7026 22.205 22.5575 22.3505C22.4124 22.496 22.2976 22.6691 22.2199 22.8595C22.1421 23.05 22.1028 23.254 22.1044 23.4598C22.1044 23.8287 22.1961 24.1045 22.3793 24.3802V24.4721C22.6542 24.841 22.8375 25.3925 22.8375 25.8521C22.8375 26.4048 22.6542 26.8644 22.3793 27.3252C22.1961 27.5998 22.0128 27.9687 22.0128 28.3363C22.0128 29.2566 22.7459 29.9003 23.5718 29.9003C23.9383 29.9003 24.2144 29.8081 24.4882 29.5325C25.3141 28.981 26.5982 28.981 27.4241 29.6244Z" fill="white" />
  </g>
  <defs>
    <clipPath id="clip0_4603_260">
      <rect width="53" height="52" fill="white" />
    </clipPath>
  </defs>
</svg>