<svg width="120" height="44" viewBox="0 0 120 44" fill="none" xmlns="http://www.w3.org/2000/svg">
  <g clip-path="url(#clip0_4603_237)">
    <path d="M31.1076 41.0176C28.8912 41.0176 26.8284 40.3284 25.1463 39.0241C24.1572 38.2717 22.9483 37.8675 21.707 37.874C20.4078 37.874 19.1849 38.258 18.1912 39.1006H18.1149C16.4276 40.4018 14.357 41.1031 12.2289 41.0942C6.80204 41.0942 2.36896 36.6475 2.36896 31.2038C2.36896 28.9806 3.05723 26.9105 4.35642 25.2241C5.10647 24.232 5.5094 23.0194 5.50285 21.7742C5.50285 20.471 5.12104 19.2434 4.28005 18.2466V18.0178C2.98086 16.3306 2.36896 14.2605 2.36896 12.1137C2.36896 6.67009 6.80204 2.22333 12.2289 2.22333C14.4454 2.22333 16.5092 2.91273 18.1912 4.21692C19.1804 4.96928 20.3892 5.37349 21.6306 5.36692C22.9298 5.36692 24.1527 4.98291 25.1463 4.14032C26.9047 2.83711 28.9675 2.14673 31.1076 2.14673C36.5355 2.14673 40.9675 6.59349 40.9675 12.0371C40.9675 14.2605 40.2804 16.3306 38.9811 18.0168C38.2311 19.009 37.8281 20.2216 37.8346 21.4668C37.8346 22.77 38.2164 23.9976 39.0574 24.9944C40.3567 26.7571 41.0448 28.7507 41.0448 30.9742C40.9675 36.5709 36.5355 41.0176 31.1076 41.0176ZM21.6306 36.5709C23.1589 36.5709 24.6118 37.0315 25.8346 38.0284C27.3545 39.1752 29.2056 39.7939 31.1076 39.7911C35.8471 39.7911 39.7457 35.8814 39.7457 31.1273C39.7457 29.2103 39.1339 27.4466 37.9875 25.9145C37.0699 24.687 36.5345 23.154 36.5345 21.62C36.5345 20.088 36.9936 18.6306 37.9875 17.404C39.1186 15.9018 39.7351 14.0728 39.7447 12.1903C39.7447 7.43709 35.8471 3.52652 31.1076 3.52652C29.1977 3.52652 27.4392 4.14032 25.9109 5.29031C24.6881 6.20951 23.2352 6.7467 21.6306 6.7467C20.1013 6.7467 18.6494 6.28611 17.4266 5.29031C15.9064 4.14297 14.0549 3.52378 12.1525 3.52652C7.41395 3.52652 3.51541 7.43611 3.51541 12.1903C3.51541 14.1072 4.12732 15.871 5.27377 17.403L5.35014 17.4806C6.26749 18.7072 6.80204 20.1636 6.80204 21.6976C6.80204 23.2306 6.34386 24.687 5.35014 25.9136C4.20368 27.4476 3.59178 29.2103 3.59178 31.1273C3.59178 35.8814 7.48933 39.792 12.2299 39.792C14.1399 39.792 15.8983 39.1784 17.4266 38.0284C18.6494 37.0315 20.1013 36.5709 21.6306 36.5709Z" fill="#59A417" />
    <path d="M32.2555 43.3186C29.8087 43.3186 27.516 42.5516 25.6049 41.0176C24.4531 40.1683 23.0604 39.7116 21.6309 39.7145C20.178 39.7145 18.8024 40.175 17.656 41.0954C15.7449 42.5516 13.452 43.3186 11.0064 43.3186C4.96862 43.3186 6.45642e-06 38.3348 6.45642e-06 32.2773C6.45642e-06 29.8242 0.763649 27.5241 2.29291 25.6071C3.12768 24.4749 3.5826 23.106 3.5921 21.6976C3.5921 20.2403 3.13392 18.8605 2.21655 17.7105V17.6339C0.776309 15.7396 -0.00258718 13.4226 6.45642e-06 11.0403C6.45642e-06 4.98396 4.96862 0 11.0064 0C13.452 0 15.7449 0.765998 17.656 2.29998C18.8079 3.14959 20.2011 3.60632 21.6309 3.60317C23.0828 3.60317 24.4584 3.14357 25.6058 2.22339C27.5148 0.766993 29.8078 0 32.2546 0C38.2922 0 43.2607 4.98396 43.2607 11.0403C43.2607 13.4935 42.4961 15.7935 41.0443 17.7105C40.1974 18.866 39.7421 20.2634 39.745 21.6976C39.745 23.1541 40.2034 24.5339 41.1206 25.6849C42.5609 27.579 43.3397 29.8961 43.3373 32.2783C43.2607 38.3348 38.3695 43.3186 32.2555 43.3186ZM21.6299 38.4879C23.3109 38.4879 24.9919 39.025 26.292 40.0985C28.0505 41.4016 30.037 42.0921 32.2546 42.0921C37.6049 42.0921 42.037 37.7219 42.037 32.2783C42.037 30.1306 41.3496 28.138 40.0505 26.3741C38.9794 24.9944 38.4449 23.3838 38.4449 21.621C38.4449 19.9339 38.9806 18.2477 40.0505 16.9435C41.3496 15.1807 42.0379 13.1871 42.0379 11.0403C42.0379 5.67337 37.6802 1.22659 32.2546 1.22659C30.1262 1.21783 28.0558 1.91915 26.3686 3.22017C24.9926 4.22541 23.3321 4.76262 21.6299 4.75316C19.9479 4.75316 18.2669 4.21597 16.9677 3.14357C15.2094 1.84039 13.2219 1.14999 11.0054 1.14999C5.65493 1.14999 1.22183 5.52016 1.22183 10.9637C1.22183 13.1105 1.9101 15.1807 3.20928 16.8669V16.9445C4.27937 18.3243 4.81392 19.9339 4.81392 21.6976C4.81392 23.3838 4.27838 25.07 3.20928 26.3741C1.91247 28.0663 1.21332 30.1429 1.22183 32.2773C1.22183 37.6444 5.57856 42.0921 11.0054 42.0921C13.1332 42.1005 15.2034 41.3992 16.8904 40.0985C18.248 39.0484 19.9156 38.4817 21.6299 38.4879Z" fill="#59A417" />
    <path d="M29.9616 38.7178C28.0598 38.7205 26.2087 38.1018 24.6886 36.9549C22.9303 35.5742 20.4083 35.6518 18.6499 36.9549C17.1296 38.102 15.2781 38.7207 13.3758 38.7178C12.2314 38.7183 11.0981 38.4925 10.0407 38.0536C8.9833 37.6145 8.02253 36.9708 7.2133 36.159C6.40409 35.3472 5.76228 34.3835 5.32457 33.3228C4.88686 32.2621 4.66183 31.1254 4.66236 29.9775C4.66236 28.0605 5.27427 26.221 6.42072 24.687L6.49709 24.6104C7.10801 23.7669 7.49081 22.7701 7.49081 21.6977C7.49081 20.6233 7.10801 19.5509 6.41974 18.6307L6.34435 18.5541C5.19691 17.0201 4.66138 15.2573 4.66138 13.3403C4.66085 12.1924 4.88587 11.0556 5.32359 9.99494C5.7613 8.93426 6.40311 7.97052 7.21231 7.15882C8.02155 6.34709 8.98231 5.7033 10.0397 5.26424C11.0971 4.82517 12.2304 4.59946 13.3748 4.59998C15.2859 4.59998 17.1206 5.21378 18.6489 6.36377C20.4073 7.74355 22.9293 7.66697 24.6866 6.36377C26.2068 5.21643 28.0584 4.59724 29.9606 4.59998C31.1052 4.59946 32.2385 4.82517 33.2959 5.26424C34.3531 5.7033 35.3141 6.34709 36.1231 7.15882C36.9324 7.97052 37.5742 8.93426 38.0119 9.99494C38.4497 11.0556 38.6748 12.1924 38.6741 13.3403C38.6772 15.2485 38.0604 17.1057 36.9168 18.6307C36.2285 19.4743 35.923 20.5477 35.923 21.6211C35.923 22.6945 36.3048 23.7669 36.9931 24.687C38.1367 26.2121 38.7535 28.0691 38.7506 29.9775C38.6741 34.8082 34.7767 38.7178 29.9606 38.7178H29.9616ZM21.6311 34.6551C23.0066 34.6551 24.3058 35.1147 25.3759 35.9582C26.6947 36.9612 28.3066 37.5002 29.9616 37.4913C34.0894 37.4913 37.4522 34.1178 37.4522 29.9775C37.4486 28.3429 36.9118 26.7542 35.9242 25.454C35.081 24.3849 34.6231 23.0609 34.6248 21.6977C34.6248 20.3169 35.083 19.0137 35.9242 17.9403C36.924 16.6174 37.4611 15.0005 37.4522 13.3403C37.4522 9.19996 34.0903 5.82658 29.9616 5.82658C28.2806 5.82658 26.7514 6.36377 25.4522 7.36056C24.3821 8.20318 23.083 8.66376 21.6311 8.66376C20.2717 8.66578 18.9515 8.2065 17.8853 7.36056C16.5665 6.35713 14.9547 5.81796 13.2995 5.82658C9.17182 5.82658 5.80882 9.19996 5.80882 13.3403C5.81314 14.9752 6.35055 16.5638 7.33908 17.8637L7.41545 17.9403C8.25545 19.0147 8.63825 20.3179 8.63825 21.6977V21.8509C8.63825 23.2307 8.17908 24.4573 7.33908 25.5317V25.454C6.34534 26.7574 5.88617 28.2911 5.88617 29.9007C5.88617 34.0412 9.24917 37.4145 13.3768 37.4145C15.0588 37.4145 16.5871 36.8774 17.8863 35.8817C18.9768 35.0908 20.2855 34.6621 21.6311 34.6551Z" fill="#59A417" />
    <path d="M28.8915 36.6484C27.2103 36.6484 25.5293 36.1113 24.2302 35.0369C23.4787 34.4765 22.5672 34.1739 21.6308 34.1739C20.6944 34.1739 19.783 34.4765 19.0315 35.0369C17.6559 36.0348 16.0513 36.5709 14.3703 36.5709C13.3557 36.5738 12.3505 36.3754 11.4125 35.9873C10.4746 35.5993 9.62234 35.029 8.90486 34.3094C8.18735 33.5898 7.61875 32.7349 7.2317 31.7941C6.84465 30.8533 6.64682 29.8451 6.64958 28.8275C6.64958 27.1411 7.18511 25.4549 8.25422 24.1509C8.78975 23.3848 9.0952 22.5402 9.0952 21.5444C9.09465 20.5961 8.77096 19.6765 8.17785 18.9381L8.10148 18.8605C7.10776 17.4807 6.57321 15.9467 6.57321 14.2605C6.57047 13.2428 6.76826 12.2346 7.15523 11.2939C7.54221 10.3532 8.11074 9.49843 8.82813 8.77883C9.54554 8.05924 10.3976 7.48895 11.3355 7.10077C12.2733 6.7126 13.2784 6.51419 14.2929 6.51695C15.9749 6.51695 17.6559 7.05414 18.9551 8.12655C19.7065 8.6867 20.6178 8.98922 21.554 8.98922C22.4902 8.98922 23.4015 8.6867 24.1529 8.12655L24.2292 8.04994C25.548 7.04685 27.1599 6.50805 28.8149 6.51695C29.8296 6.51419 30.8347 6.7126 31.7724 7.10077C32.7103 7.48895 33.5623 8.05924 34.2797 8.77883C34.9973 9.49843 35.5656 10.3532 35.9527 11.2939C36.3396 12.2346 36.5374 13.2428 36.5347 14.2605C36.5347 15.9467 35.9993 17.5573 35.0064 18.9371V19.0137C34.471 19.7797 34.1655 20.6242 34.1655 21.62C34.1655 22.5402 34.471 23.4604 35.0827 24.2274C36.0766 25.6073 36.6111 27.2179 36.6111 28.904C36.6139 29.9216 36.4159 30.9299 36.0291 31.8707C35.6422 32.8113 35.0736 33.6661 34.3563 34.3857C33.6389 35.1053 32.7867 35.6756 31.8487 36.0637C30.9111 36.452 29.9059 36.6513 28.8915 36.6484ZM21.6308 32.8912C22.8537 32.8912 24 33.2742 24.9175 34.0412C26.0463 34.8785 27.4111 35.3347 28.8149 35.3443C29.6683 35.3451 30.5134 35.1773 31.302 34.8501C32.0904 34.5229 32.8071 34.0429 33.4104 33.4377C34.0138 32.8324 34.4923 32.1138 34.8187 31.323C35.1449 30.5319 35.3127 29.6843 35.3119 28.8284C35.3119 27.371 34.8538 26.0679 34.0128 24.9179C33.264 23.9543 32.8603 22.7661 32.8663 21.5444C32.8663 20.3169 33.2482 19.1669 33.9363 18.2477V18.1701C34.7712 17.0377 35.226 15.6688 35.2356 14.2605C35.2361 13.4046 35.0686 12.5569 34.7424 11.766C34.4163 10.9751 33.9377 10.2565 33.3346 9.65121C32.7312 9.04594 32.0148 8.5659 31.2264 8.23856C30.438 7.91123 29.593 7.74302 28.7395 7.74353C27.2868 7.74353 25.9875 8.20313 24.8412 9.04673C23.8805 9.79772 22.696 10.2028 21.4781 10.1967C20.2553 10.1967 19.1078 9.81373 18.1915 9.04673C17.0623 8.20919 15.6972 7.75287 14.2929 7.74353C13.4396 7.74276 12.5945 7.91075 11.806 8.23791C11.0175 8.56508 10.301 9.045 9.69753 9.65019C9.0941 10.2554 8.61554 10.974 8.28926 11.7649C7.96298 12.5559 7.79538 13.4035 7.79603 14.2595C7.79603 15.7169 8.25422 17.0201 9.0952 18.1701V18.2477C9.85886 19.2435 10.2417 20.3935 10.2417 21.5444C10.2417 22.771 9.85984 23.921 9.0952 24.8413C8.26043 25.9735 7.80554 27.3426 7.79603 28.7507C7.79524 29.6068 7.96276 30.4546 8.28899 31.2457C8.6152 32.0368 9.09374 32.7554 9.69719 33.3606C10.3006 33.9661 11.0171 34.4461 11.8057 34.7733C12.5944 35.1005 13.4395 35.2685 14.2929 35.2678C15.7448 35.2678 17.044 34.8082 18.1905 33.9646C19.2616 33.3508 20.408 32.8912 21.6308 32.8912Z" fill="#59A417" />
    <path d="M27.8223 34.5783C26.3695 34.5783 24.9166 34.1177 23.7711 33.1976C22.5483 32.2007 20.7135 32.2782 19.4907 33.1976L19.4144 33.2752C18.2624 34.1247 16.8692 34.5814 15.4395 34.5783C11.77 34.5783 8.71345 31.588 8.71345 27.8315C8.71345 26.3741 9.17164 24.9169 10.089 23.7678C10.5482 23.154 10.7773 22.388 10.7773 21.621C10.7773 20.855 10.5482 20.087 10.0136 19.4742C9.09527 18.3242 8.63708 16.8678 8.63708 15.4105C8.63708 11.7297 11.6183 8.6637 15.3631 8.6637C16.816 8.6637 18.2679 9.12329 19.4144 10.0435C20.6372 11.0403 22.4719 10.9637 23.6947 10.0435C24.8412 9.12329 26.293 8.6637 27.7459 8.6637C31.4143 8.6637 34.4719 11.6541 34.4719 15.4105C34.4719 16.8678 34.0128 18.3242 33.0955 19.4742C32.6371 20.087 32.3319 20.854 32.3319 21.621C32.3319 22.387 32.5599 23.154 33.0955 23.7678C33.9365 24.9178 34.4719 26.2975 34.4719 27.8315C34.5483 31.5112 31.5672 34.5783 27.8223 34.5783ZM21.6309 31.205C22.701 31.205 23.6937 31.5112 24.5357 32.2017C25.5295 32.9677 26.6758 33.3517 27.8223 33.3517C30.8026 33.3517 33.2491 30.8976 33.2491 27.9081C33.2491 26.6805 32.8663 25.6071 32.178 24.6114C31.4909 23.7678 31.1854 22.771 31.1854 21.6966C31.1854 20.6242 31.4909 19.6274 32.179 18.7838C32.9427 17.787 33.3255 16.7146 33.3255 15.4871C33.3255 12.4977 30.8789 10.0435 27.8988 10.0435C26.6758 10.0435 25.6049 10.4275 24.612 11.1179C22.9301 12.4211 20.4844 12.4211 18.8025 11.1179C17.8087 10.3509 16.7396 9.9669 15.5158 9.9669C12.5356 9.9669 10.089 12.4201 10.089 15.4105C10.089 16.6371 10.4718 17.7104 11.1601 18.7072C11.8473 19.5508 12.1528 20.5476 12.1528 21.621C12.1528 22.6944 11.8473 23.6902 11.1591 24.5339C10.3954 25.454 10.0126 26.604 10.0126 27.8315C10.0126 30.821 12.4583 33.2752 15.4395 33.2752C16.6623 33.2752 17.7323 32.8912 18.7261 32.2007C19.5671 31.5112 20.5608 31.205 21.6309 31.205Z" fill="#59A417" />
    <path d="M26.8284 32.4307C25.5874 32.4374 24.3785 32.0337 23.3891 31.2816C22.893 30.9085 22.2896 30.7065 21.6695 30.7065C21.0493 30.7065 20.4459 30.9085 19.9498 31.2816C18.9561 32.0477 17.8096 32.4317 16.5104 32.4317C15.7671 32.4333 15.0308 32.2879 14.3437 32.0036C13.6566 31.7191 13.0323 31.3011 12.5067 30.7742C11.981 30.2469 11.5644 29.6208 11.2807 28.9315C10.997 28.2425 10.8518 27.5039 10.8535 26.7584C10.847 25.513 11.2499 24.3004 12 23.3083C12.3913 22.8332 12.6075 22.2373 12.6119 21.6211C12.6119 21.0073 12.3828 20.3945 12 19.8573L11.9236 19.7807C11.2301 18.7935 10.8565 17.616 10.8535 16.4083C10.8517 15.6626 10.9968 14.9239 11.2804 14.2346C11.5641 13.5454 11.9806 12.9191 12.5063 12.3919C13.032 11.8646 13.6563 11.4467 14.3435 11.1621C15.0306 10.8776 15.767 10.7321 16.5104 10.734C17.7518 10.7274 18.9606 11.1316 19.9498 11.884C20.4459 12.2572 21.0493 12.4589 21.6695 12.4589C22.2896 12.4589 22.893 12.2572 23.3891 11.884C24.3828 11.1179 25.5293 10.734 26.8284 10.734C27.5717 10.7323 28.308 10.8778 28.9949 11.1623C29.682 11.4468 30.306 11.8647 30.8316 12.3919C31.3572 12.919 31.7736 13.5451 32.0573 14.2342C32.341 14.9233 32.4862 15.6618 32.4845 16.4073C32.491 17.6525 32.088 18.8651 31.338 19.8573C30.9562 20.3945 30.727 20.9317 30.727 21.5445C30.727 22.1573 30.9552 22.7711 31.338 23.3083C32.0863 24.2715 32.4903 25.4593 32.4845 26.6806C32.4845 29.9017 29.9623 32.4307 26.8284 32.4307ZM21.6318 29.4412C22.5482 29.4412 23.3891 29.7476 24.0763 30.2847C24.841 30.8977 25.7585 31.2051 26.7521 31.2051C27.9276 31.2041 29.0547 30.7354 29.886 29.9017C30.7171 29.068 31.1844 27.9373 31.1851 26.7584C31.1851 25.7615 30.8799 24.8413 30.2679 24.0743C29.7324 23.3083 29.4269 22.4647 29.4269 21.5445C29.4269 20.6243 29.7334 19.7807 30.2679 19.0913C30.8799 18.3243 31.1851 17.4041 31.1851 16.4073C31.1844 15.2282 30.7171 14.0976 29.886 13.2639C29.0547 12.4301 27.9276 11.9613 26.7521 11.9605C25.7585 11.9605 24.841 12.267 24.0763 12.8807C22.6245 13.9541 20.5607 14.0307 19.1078 12.8807C18.3441 12.267 17.4268 11.9605 16.4331 11.9605C15.2576 11.9613 14.1305 12.4301 13.2993 13.2639C12.4681 14.0976 12.0008 15.2282 12 16.4073C12 17.4041 12.3064 18.3243 12.9173 19.0913L12.9937 19.1679C13.5292 19.8573 13.7583 20.7009 13.7583 21.6211C13.7583 22.5413 13.4529 23.3849 12.9173 24.0743C12.3064 24.8404 12 25.7615 12 26.7584C12.0008 27.9373 12.4681 29.068 13.2993 29.9017C14.1305 30.7354 15.2576 31.2041 16.4331 31.2051C17.4268 31.2051 18.3442 30.8986 19.1088 30.2847C19.8724 29.7476 20.7144 29.4412 21.6318 29.4412Z" fill="#59A417" />
    <path d="M25.7585 30.3612C24.7426 30.3624 23.7522 30.0403 22.9301 29.4411C22.1665 28.8275 21.0954 28.904 20.3318 29.4411C19.5152 30.0509 18.5213 30.3742 17.5033 30.3612C14.9813 30.3612 12.8421 28.2911 12.8421 25.6839C12.8421 24.687 13.1466 23.6902 13.7585 22.8476C14.0542 22.478 14.2154 22.0183 14.2154 21.5444C14.2154 21.0705 14.0542 20.6108 13.7585 20.2412L13.6821 20.1636C13.0702 19.3976 12.7648 18.4008 12.7648 17.404C12.7648 14.8732 14.8286 12.7264 17.427 12.7264C18.4207 12.7264 19.4144 13.0338 20.2554 13.6467C21.019 14.2604 22.0901 14.1838 22.8538 13.6467C23.6704 13.0369 24.6643 12.7135 25.6822 12.7264C28.2043 12.7264 30.3444 14.7966 30.3444 17.404C30.3444 18.4008 30.0389 19.3976 29.4271 20.1636L29.3506 20.2402C29.0549 20.6098 28.8939 21.0695 28.8939 21.5434C28.8939 22.0173 29.0549 22.477 29.3506 22.8466C29.9626 23.6902 30.2681 24.6104 30.2681 25.6071C30.4207 28.2911 28.2807 30.3612 25.7585 30.3612ZM21.6309 27.755C22.3946 27.755 23.0839 27.9837 23.6948 28.4444C24.3067 28.904 24.9939 29.1346 25.7585 29.1346C27.5933 29.1346 29.1216 27.6006 29.1216 25.7604C29.1216 24.9944 28.8924 24.3039 28.4333 23.6912C27.9811 23.0969 27.7395 22.3685 27.7459 21.621C27.7459 20.9306 27.9751 20.2402 28.4342 19.6274L28.5096 19.5508C28.969 18.937 29.1979 18.2476 29.1979 17.4806C29.1979 15.6402 27.6696 14.1072 25.836 14.1072C25.0704 14.1072 24.3831 14.336 23.7711 14.7966C22.6247 15.7168 20.8673 15.7168 19.6435 14.7966C19.0513 14.3435 18.3255 14.1009 17.5807 14.1072C15.746 14.1072 14.2167 15.6402 14.2167 17.4796C14.2167 18.2466 14.4468 18.937 14.9049 19.5508V19.6274C15.3641 20.2402 15.5932 20.9306 15.5932 21.621C15.5932 22.387 15.3631 23.0774 14.9049 23.6902C14.4525 24.2844 14.2104 25.0127 14.2167 25.7604C14.2167 27.6006 15.746 29.1346 17.5807 29.1346C18.3443 29.1346 19.0326 28.904 19.6435 28.4444C20.179 27.9837 20.8673 27.755 21.6309 27.755Z" fill="#59A417" />
    <path d="M24.6883 28.2913C23.9248 28.2913 23.1602 28.0614 22.4719 27.5253C21.9363 27.1413 21.2491 27.1413 20.7899 27.5253C20.1534 28.015 19.3754 28.2836 18.5733 28.2913C18.1015 28.2918 17.6342 28.1989 17.1981 28.0181C16.7621 27.8371 16.3658 27.5718 16.0322 27.2371C15.6985 26.9023 15.434 26.505 15.2536 26.0676C15.0733 25.6302 14.9807 25.1615 14.9813 24.6882C14.9813 23.9211 15.2103 23.1541 15.7449 22.4647C15.8986 22.2339 16.0514 21.9275 16.0514 21.6211C16.0514 21.3147 15.975 21.0073 15.7459 20.7775C15.2867 20.0871 14.9813 19.3211 14.9813 18.5541C14.9807 18.0808 15.0733 17.612 15.2536 17.1746C15.434 16.7372 15.6985 16.3398 16.0322 16.0051C16.3658 15.6704 16.7621 15.405 17.1981 15.2241C17.6342 15.0432 18.1015 14.9504 18.5733 14.9509C19.338 14.9509 20.1026 15.1807 20.7899 15.7169C21.3254 16.1009 22.0127 16.1009 22.5482 15.7169L22.6246 15.6403C23.2365 15.1807 24.0002 14.9509 24.7649 14.9509C25.2367 14.9504 25.704 15.0432 26.1401 15.2241C26.5762 15.405 26.9724 15.6704 27.306 16.0051C27.6396 16.3398 27.9041 16.7372 28.0846 17.1746C28.2648 17.612 28.3574 18.0808 28.357 18.5541C28.357 19.3201 28.1278 20.0871 27.5933 20.7775C27.3631 21.0073 27.2868 21.3147 27.2868 21.6211C27.2868 21.9275 27.3631 22.2339 27.5933 22.4647C28.0514 23.0775 28.2804 23.8445 28.2804 24.6114C28.2804 26.6805 26.6758 28.2913 24.6883 28.2913ZM23.3129 26.6049C23.6947 26.9114 24.2292 27.0645 24.6883 27.0645C25.9877 27.0645 27.0576 25.9903 27.0576 24.687C27.0576 24.1508 26.905 23.6913 26.5994 23.2307C26.2166 22.7711 26.064 22.1573 26.064 21.6211C26.064 21.0073 26.2166 20.4711 26.5994 20.0105C26.905 19.6275 27.0576 19.0913 27.0576 18.5541C27.0576 17.2509 25.9877 16.1765 24.6874 16.1765C24.1529 16.1765 23.6947 16.3307 23.2365 16.6371H23.1592C22.2428 17.3275 20.8663 17.3275 19.9499 16.6371C19.5671 16.3307 19.0325 16.1775 18.497 16.1775C17.8694 16.1807 17.2684 16.4322 16.8248 16.8774C16.3811 17.3227 16.1306 17.9256 16.1277 18.5551C16.1277 19.0913 16.2804 19.5509 16.5859 20.0105C16.9687 20.4711 17.1214 21.0073 17.1214 21.6211C17.1214 22.2339 16.9687 22.7711 16.5859 23.2307C16.2804 23.6147 16.1277 24.1508 16.1277 24.6882C16.1308 25.3175 16.3816 25.9203 16.8255 26.3654C17.2693 26.8105 17.8704 27.0619 18.498 27.0645C19.0325 27.0645 19.4907 26.9114 19.9489 26.6049C20.4308 26.232 21.0222 26.0298 21.6309 26.0298C22.2395 26.0298 22.831 26.232 23.3129 26.6049Z" fill="#59A417" />
    <path d="M23.6181 26.221C23.0826 26.221 22.4716 26.0679 22.0888 25.6839C21.9614 25.6086 21.8162 25.5688 21.6683 25.5688C21.5204 25.5688 21.3752 25.6086 21.2478 25.6839C20.8188 26.0397 20.2772 26.2302 19.7205 26.221C19.3785 26.2239 19.0392 26.1584 18.7226 26.0287C18.406 25.8987 18.1183 25.7068 17.8764 25.4641C17.6344 25.2217 17.4431 24.933 17.3134 24.6155C17.1837 24.298 17.1184 23.9578 17.1212 23.6146C17.1212 23.0774 17.2739 22.4636 17.6567 22.0806C17.7321 21.9274 17.8085 21.7742 17.8085 21.62C17.8085 21.3912 17.7321 21.2371 17.6557 21.1604L17.5794 21.0838C17.2793 20.6293 17.1199 20.096 17.1212 19.5509C17.1184 19.2078 17.1837 18.8676 17.3133 18.5501C17.4429 18.2327 17.6342 17.9442 17.876 17.7017C18.1179 17.4591 18.4054 17.2672 18.7219 17.1372C19.0384 17.0072 19.3776 16.9417 19.7196 16.9445C20.2551 16.9445 20.866 17.0967 21.2478 17.4807C21.36 17.5912 21.511 17.6532 21.6683 17.6532C21.8256 17.6532 21.9766 17.5912 22.0888 17.4807C22.5184 17.1244 23.0608 16.9338 23.6181 16.9435C23.9601 16.9407 24.2993 17.0062 24.6156 17.1362C24.9322 17.2662 25.2197 17.4581 25.4616 17.7007C25.7035 17.9432 25.8948 18.2317 26.0244 18.5492C26.154 18.8666 26.2193 19.2068 26.2164 19.5499C26.2164 20.0871 26.0638 20.7008 25.681 21.0838C25.6046 21.2371 25.5281 21.3902 25.5281 21.5434C25.5281 21.6976 25.6046 21.8508 25.681 22.004C25.9874 22.4636 26.2164 23.0008 26.2164 23.537C26.2164 25.071 25.0699 26.221 23.6181 26.221ZM22.8535 24.687C23.0826 24.8401 23.389 24.9179 23.6171 24.9179C24.3818 24.9179 24.9163 24.304 24.9163 23.6146C24.9163 23.3072 24.841 23.0774 24.6881 22.8476C24.4582 22.5402 24.3053 22.0806 24.3053 21.621C24.3053 21.1604 24.4582 20.7775 24.6881 20.3934C24.841 20.1646 24.9936 19.8563 24.9936 19.5509C24.9936 18.7839 24.3818 18.2477 23.6945 18.2477C23.388 18.2477 23.1589 18.3233 22.9298 18.5541C22.2416 19.0913 21.2488 19.0913 20.5596 18.5541C20.3315 18.4009 20.025 18.2467 19.7196 18.2467C19.5486 18.2453 19.379 18.2782 19.2208 18.3432C19.0626 18.4082 18.9188 18.5041 18.798 18.6254C18.677 18.7467 18.5814 18.8909 18.5166 19.0496C18.4518 19.2083 18.419 19.3783 18.4204 19.5499C18.4204 19.8572 18.4967 20.0871 18.6495 20.3168V20.3934C18.8786 20.7008 19.0313 21.1604 19.0313 21.5434C19.0313 22.004 18.8786 22.387 18.6495 22.771C18.4967 22.9998 18.344 23.3072 18.344 23.6136C18.344 24.3805 18.9549 24.9169 19.6432 24.9169C19.9486 24.9169 20.1787 24.8401 20.4068 24.6105C21.0951 24.1509 22.1652 24.1509 22.8535 24.687Z" fill="#59A417" />
    <path d="M117.707 15.7946V17.3275L117.478 17.0978C116.408 16.1009 115.185 15.5638 113.886 15.5638C110.523 15.5638 108 18.1701 108 21.6211C108 25.071 110.523 27.6785 113.886 27.6785C115.185 27.6785 116.484 27.1412 117.478 26.1445L117.707 25.9146V27.4476H120V15.7946H117.707ZM114.115 25.2254C112.128 25.2254 110.676 23.6913 110.676 21.6211C110.676 19.5519 112.128 18.0179 114.115 18.0179C116.102 18.0179 117.554 19.5509 117.554 21.6211C117.554 23.6903 116.102 25.2254 114.115 25.2254ZM73.987 27.3711H76.2809V15.7946H73.987L68.1031 24.3031V15.7926H65.8102V27.3701H68.1804L74.0645 18.8595L73.9882 27.3701L73.987 27.3711ZM61.0697 30.5147H63.1335V25.3775H61.3762V15.7936H59.0832V25.3775H53.7327V15.7936H51.4399V27.3711H61.0697V30.5147ZM91.5677 17.4041C90.4966 16.3308 88.9695 15.7946 87.1347 15.7946H86.9818V12.1138H84.6881V15.7946H84.5352C82.7004 15.7946 81.096 16.4074 80.0259 17.4807C78.9557 18.5551 78.3449 19.9339 78.3449 21.7743C78.3449 23.5381 78.8803 24.9945 80.0259 26.0679C81.097 27.1412 82.7016 27.6785 84.5352 27.7541H84.6881V31.4348H86.9818V27.7541H87.1347C88.9695 27.7541 90.4966 27.1412 91.5677 26.0679C92.6379 24.9945 93.2487 23.5381 93.2487 21.7743C93.2487 19.8573 92.6379 18.4009 91.5677 17.4041ZM84.4589 25.4541C83.4651 25.3775 82.6241 25.071 82.0133 24.3818C81.4013 23.6913 81.096 22.7711 81.096 21.6211C81.096 20.4711 81.4013 19.5509 82.0133 18.8605C82.6251 18.2477 83.3887 17.8637 84.4589 17.7871V25.4541ZM89.5803 24.3818C88.9683 24.9945 88.2048 25.3775 87.21 25.4541V17.8637C88.2048 17.9413 88.9683 18.2477 89.5803 18.9381C90.1923 19.6275 90.4975 20.5477 90.4975 21.6977C90.4975 22.8477 90.1911 23.7669 89.5803 24.3818ZM101.045 15.6413C99.8983 15.6413 98.7519 16.1009 97.8346 16.9445L97.6063 17.1744V15.7946H95.3124V31.2042H97.6054V25.9914L97.8346 26.2211C98.7519 27.0646 99.8983 27.5242 101.045 27.5242C103.873 27.5242 106.166 24.8414 106.166 21.5455C106.166 18.2477 103.873 15.6413 101.045 15.6413ZM100.587 25.2244C98.9047 25.2244 97.6054 23.6147 97.6054 21.5445C97.6054 19.4753 98.9811 17.8637 100.587 17.8637C102.268 17.8637 103.568 19.4753 103.568 21.5445C103.568 23.6137 102.191 25.2244 100.587 25.2244Z" fill="white" />
  </g>
  <defs>
    <clipPath id="clip0_4603_237">
      <rect width="120" height="43.3333" fill="white" />
    </clipPath>
  </defs>
</svg>